<svg width="47" height="47" viewBox="0 0 47 47" fill="none" xmlns="http://www.w3.org/2000/svg">
<path fill-rule="evenodd" clip-rule="evenodd" d="M13.8631 0.26525C16.3558 0.1505 17.1505 0.125 23.5 0.125C29.8495 0.125 30.6443 0.152625 33.1348 0.26525C35.6253 0.377875 37.3253 0.77525 38.8128 1.35113C40.3704 1.93975 41.7835 2.85987 42.9523 4.04988C44.1423 5.2165 45.0603 6.6275 45.6468 8.18725C46.2248 9.67475 46.62 11.3748 46.7348 13.861C46.8495 16.3579 46.875 17.1526 46.875 23.5C46.875 29.8495 46.8474 30.6443 46.7348 33.1369C46.6221 35.6231 46.2248 37.3231 45.6468 38.8106C45.0602 40.3706 44.1407 41.7839 42.9523 42.9523C41.7835 44.1423 40.3704 45.0603 38.8128 45.6468C37.3253 46.2248 35.6253 46.62 33.139 46.7348C30.6443 46.8495 29.8495 46.875 23.5 46.875C17.1505 46.875 16.3558 46.8474 13.8631 46.7348C11.3769 46.6221 9.67688 46.2248 8.18938 45.6468C6.62946 45.0602 5.21612 44.1407 4.04775 42.9523C2.85856 41.7849 1.93829 40.3723 1.35113 38.8128C0.77525 37.3253 0.38 35.6253 0.26525 33.139C0.1505 30.6421 0.125 29.8474 0.125 23.5C0.125 17.1505 0.152625 16.3558 0.26525 13.8653C0.377875 11.3748 0.77525 9.67475 1.35113 8.18725C1.93916 6.62767 2.86013 5.21504 4.04988 4.04775C5.21659 2.85882 6.6285 1.93857 8.18725 1.35113C9.67475 0.77525 11.3748 0.38 13.861 0.26525H13.8631ZM32.9456 4.47275C30.4806 4.36013 29.7411 4.33675 23.5 4.33675C17.2589 4.33675 16.5194 4.36013 14.0544 4.47275C11.7743 4.57688 10.5375 4.95725 9.713 5.27813C8.62288 5.70313 7.843 6.20675 7.02488 7.02488C6.24935 7.77936 5.65251 8.69785 5.27813 9.713C4.95725 10.5375 4.57688 11.7743 4.47275 14.0544C4.36013 16.5194 4.33675 17.2589 4.33675 23.5C4.33675 29.7411 4.36013 30.4806 4.47275 32.9456C4.57688 35.2258 4.95725 36.4625 5.27813 37.287C5.65213 38.3006 6.24925 39.2208 7.02488 39.9751C7.77925 40.7508 8.69938 41.3479 9.713 41.7219C10.5375 42.0428 11.7743 42.4231 14.0544 42.5273C16.5194 42.6399 17.2568 42.6633 23.5 42.6633C29.7433 42.6633 30.4806 42.6399 32.9456 42.5273C35.2258 42.4231 36.4625 42.0428 37.287 41.7219C38.3771 41.2969 39.157 40.7933 39.9751 39.9751C40.7508 39.2208 41.3479 38.3006 41.7219 37.287C42.0428 36.4625 42.4231 35.2258 42.5273 32.9456C42.6399 30.4806 42.6633 29.7411 42.6633 23.5C42.6633 17.2589 42.6399 16.5194 42.5273 14.0544C42.4231 11.7743 42.0428 10.5375 41.7219 9.713C41.2969 8.62288 40.7933 7.843 39.9751 7.02488C39.2206 6.2494 38.3021 5.65257 37.287 5.27813C36.4625 4.95725 35.2258 4.57688 32.9456 4.47275ZM20.5144 30.7059C22.1818 31.4 24.0384 31.4936 25.7672 30.9709C27.496 30.4482 28.9897 29.3415 29.9932 27.8398C30.9966 26.3381 31.4476 24.5346 31.2691 22.7374C31.0906 20.9401 30.2936 19.2606 29.0144 17.9856C28.1989 17.1706 27.2128 16.5466 26.1272 16.1584C25.0416 15.7703 23.8834 15.6276 22.7361 15.7408C21.5887 15.854 20.4807 16.2201 19.4918 16.8129C18.503 17.4057 17.6578 18.2103 17.0173 19.1689C16.3767 20.1275 15.9567 21.2162 15.7873 22.3567C15.618 23.4971 15.7037 24.6609 16.0381 25.7642C16.3726 26.8676 16.9475 27.883 17.7215 28.7375C18.4955 29.592 19.4494 30.2643 20.5144 30.7059ZM15.0043 15.0043C16.1199 13.8886 17.4444 13.0036 18.9021 12.3998C20.3598 11.796 21.9222 11.4852 23.5 11.4852C25.0778 11.4852 26.6402 11.796 28.0979 12.3998C29.5556 13.0036 30.8801 13.8886 31.9958 15.0043C33.1114 16.1199 33.9964 17.4444 34.6002 18.9021C35.204 20.3598 35.5148 21.9222 35.5148 23.5C35.5148 25.0778 35.204 26.6402 34.6002 28.0979C33.9964 29.5556 33.1114 30.8801 31.9958 31.9958C29.7425 34.249 26.6865 35.5148 23.5 35.5148C20.3135 35.5148 17.2575 34.249 15.0043 31.9958C12.751 29.7425 11.4852 26.6865 11.4852 23.5C11.4852 20.3135 12.751 17.2575 15.0043 15.0043ZM38.1795 13.2745C38.456 13.0137 38.6773 12.7001 38.8304 12.3522C38.9835 12.0043 39.0652 11.6293 39.0708 11.2492C39.0763 10.8692 39.0055 10.4919 38.8627 10.1397C38.7198 9.78753 38.5077 9.46759 38.2389 9.19883C37.9702 8.93008 37.6502 8.71799 37.298 8.5751C36.9458 8.43222 36.5686 8.36145 36.1885 8.36699C35.8085 8.37253 35.4334 8.45427 35.0856 8.60736C34.7377 8.76045 34.4241 8.98178 34.1633 9.25825C33.656 9.79594 33.3783 10.5101 33.3891 11.2492C33.3999 11.9883 33.6983 12.6941 34.221 13.2168C34.7436 13.7395 35.4494 14.0379 36.1885 14.0486C36.9276 14.0594 37.6418 13.7817 38.1795 13.2745Z" fill="white"/>
</svg>
