<svg width="67" height="77" viewBox="0 0 67 77" fill="none" xmlns="http://www.w3.org/2000/svg">
<path fill-rule="evenodd" clip-rule="evenodd" d="M33.256 0C34.5158 0 35.724 0.500446 36.6148 1.39124C37.5056 2.28204 38.006 3.49022 38.006 4.75V59.7835L58.393 39.387C58.8346 38.9454 59.3589 38.595 59.936 38.356C60.513 38.117 61.1314 37.994 61.756 37.994C62.3806 37.994 62.999 38.117 63.576 38.356C64.1531 38.595 64.6774 38.9454 65.119 39.387C65.5606 39.8286 65.911 40.3529 66.15 40.93C66.389 41.507 66.512 42.1254 66.512 42.75C66.512 43.3746 66.389 43.993 66.15 44.57C65.911 45.1471 65.5606 45.6714 65.119 46.113L36.619 74.613C36.1778 75.0554 35.6536 75.4063 35.0765 75.6458C34.4994 75.8852 33.8808 76.0085 33.256 76.0085C32.6312 76.0085 32.0126 75.8852 31.4355 75.6458C30.8584 75.4063 30.3342 75.0554 29.893 74.613L1.393 46.113C0.951366 45.6714 0.601041 45.1471 0.362029 44.57C0.123018 43.993 0 43.3746 0 42.75C0 42.1254 0.123018 41.507 0.362029 40.93C0.601041 40.3529 0.951366 39.8286 1.393 39.387C2.28492 38.4951 3.49463 37.994 4.756 37.994C5.38057 37.994 5.99902 38.117 6.57605 38.356C7.15307 38.595 7.67737 38.9454 8.119 39.387L28.506 59.7835V4.75C28.506 3.49022 29.0064 2.28204 29.8972 1.39124C30.788 0.500446 31.9962 0 33.256 0Z" fill="white"/>
</svg>
