<svg width="57" height="49" viewBox="0 0 57 49" fill="none" xmlns="http://www.w3.org/2000/svg">
<path d="M20.1875 0.723083C17.6462 0.723083 15.4328 2.05631 14.0268 3.87634C12.6208 5.69637 11.875 8.04706 11.875 10.5907C11.875 13.1344 12.6208 15.4873 14.0268 17.3073C15.4328 19.1273 17.6462 20.4584 20.1875 20.4584C22.7288 20.4584 24.9422 19.1251 26.3482 17.3051C27.7542 15.4851 28.5 13.1344 28.5 10.5907C28.5 8.04706 27.7542 5.69418 26.3482 3.87415C24.9422 2.05412 22.7288 0.723083 20.1875 0.723083ZM28.5 10.5907C28.5 13.1344 29.2458 15.4873 30.6518 17.3073C32.0578 19.1273 34.2736 20.4584 36.8125 20.4584C39.3537 20.4584 41.5672 19.1251 42.9733 17.3051C44.3792 15.4851 45.125 13.1344 45.125 10.5907C45.125 8.04706 44.3792 5.69418 42.9733 3.87415C41.5672 2.05412 39.3537 0.723083 36.8125 0.723083C34.2713 0.723083 32.0578 2.05631 30.6518 3.87634C29.2458 5.69637 28.5 8.04706 28.5 10.5907ZM20.1875 5.1087C20.9285 5.1087 21.7455 5.45078 22.4913 6.41123C23.2275 7.36948 23.75 8.89568 23.75 10.5907C23.75 12.2858 23.2275 13.8141 22.4913 14.7702C21.7455 15.7307 20.9285 16.0727 20.1875 16.0727C19.4465 16.0727 18.6295 15.7307 17.8837 14.7702C17.1475 13.812 16.625 12.2858 16.625 10.5907C16.625 8.89568 17.1475 7.36729 17.8837 6.41123C18.6295 5.45078 19.4465 5.1087 20.1875 5.1087ZM36.8125 5.1087C37.5535 5.1087 38.3705 5.45078 39.1162 6.41123C39.8525 7.36948 40.375 8.89568 40.375 10.5907C40.375 12.2858 39.8525 13.8141 39.1162 14.7702C38.3705 15.7307 37.5535 16.0727 36.8125 16.0727C36.0715 16.0727 35.2545 15.7307 34.5088 14.7702C33.7725 13.812 33.25 12.2858 33.25 10.5907C33.25 8.89568 33.7725 7.36729 34.5088 6.41123C35.2545 5.45078 36.0715 5.1087 36.8125 5.1087ZM8.3125 16.0727C5.77125 16.0727 3.55775 17.406 2.15175 19.226C0.74575 21.046 0 23.3967 0 25.9404C0 28.484 0.74575 30.8369 2.15175 32.6569C3.55775 34.477 5.77125 35.808 8.3125 35.808C10.8538 35.808 13.0672 34.4748 14.4732 32.6547C15.8792 30.8347 16.625 28.484 16.625 25.9404C16.625 23.3967 15.8792 21.0438 14.4732 19.2238C13.0672 17.4038 10.8538 16.0727 8.3125 16.0727ZM48.6875 16.0727C46.1463 16.0727 43.9328 17.406 42.5267 19.226C41.1208 21.046 40.375 23.3967 40.375 25.9404C40.375 28.484 41.1208 30.8369 42.5267 32.6569C43.9328 34.477 46.1463 35.808 48.6875 35.808C51.2287 35.808 53.4422 34.4748 54.8483 32.6547C56.2542 30.8347 57 28.484 57 25.9404C57 23.3967 56.2542 21.0438 54.8483 19.2238C53.4422 17.4038 51.2287 16.0727 48.6875 16.0727ZM8.3125 20.4584C9.0535 20.4584 9.8705 20.8004 10.6163 21.7609C11.3525 22.7191 11.875 24.2453 11.875 25.9404C11.875 27.6354 11.3525 29.1638 10.6163 30.1199C9.8705 31.0803 9.0535 31.4224 8.3125 31.4224C7.5715 31.4224 6.7545 31.0803 6.00875 30.1199C5.2725 29.1638 4.75 27.6354 4.75 25.9404C4.75 24.2453 5.2725 22.7169 6.00875 21.7609C6.7545 20.8004 7.5715 20.4584 8.3125 20.4584ZM48.6875 20.4584C49.4285 20.4584 50.2455 20.8004 50.9912 21.7609C51.7275 22.7191 52.25 24.2453 52.25 25.9404C52.25 27.6354 51.7275 29.1638 50.9912 30.1199C50.2455 31.0803 49.4285 31.4224 48.6875 31.4224C47.9465 31.4224 47.1295 31.0803 46.3838 30.1199C45.6475 29.1616 45.125 27.6354 45.125 25.9404C45.125 24.2453 45.6475 22.7169 46.3838 21.7609C47.1295 20.8004 47.9465 20.4584 48.6875 20.4584ZM28.5 24.844C25.3341 24.844 23.1254 26.7407 22.04 28.4073C20.9618 30.0738 20.2967 31.4597 19.665 32.0386C19.3016 32.3828 17.0098 33.1788 14.6205 34.3037C13.4259 34.8673 12.2217 35.6194 11.2076 36.7706C10.1864 37.9219 9.49763 39.5117 9.49763 41.2944C9.49763 45.5046 13.2501 48.9692 17.8101 48.9692C19.8669 48.9692 22.0139 48.3553 24.1158 47.807C26.2271 47.2457 28.5 46.772 28.5 46.772C28.5 46.772 30.7729 47.2457 32.8795 47.8027C34.9837 48.3509 37.1307 48.9649 39.1875 48.9649C43.7475 48.9649 47.5 45.5002 47.5 41.29C47.5 39.5489 46.8041 37.957 45.79 36.8386C44.7806 35.7137 43.5646 35.0186 42.3795 34.4375C40.0045 33.2753 37.6699 32.3543 37.3326 32.0386C36.7626 31.5189 36.1214 30.087 35.0289 28.4117C33.9388 26.7298 31.6825 24.844 28.5 24.844ZM28.5 29.2296C30.0675 29.2296 30.2409 29.5804 30.9463 30.6681C31.6588 31.7535 32.1908 33.5977 33.915 35.1918C35.8744 36.9899 38.3491 37.3846 40.1517 38.2705C41.0542 38.7135 41.743 39.1849 42.1562 39.641C42.5671 40.0949 42.75 40.5094 42.75 41.2856C42.75 43.1276 41.1825 44.5748 39.1875 44.5748C38.4987 44.5748 36.2805 44.0924 34.2142 43.5442C32.148 43.0026 30.438 42.382 28.5 42.382C26.562 42.382 24.852 43.0026 22.7857 43.5442C20.7195 44.0924 18.5012 44.5748 17.8125 44.5748C15.8175 44.5748 14.25 43.1276 14.25 41.2856C14.25 40.4019 14.4495 39.948 14.8438 39.5007C15.238 39.0556 15.9647 38.6148 16.8482 38.2004C18.6152 37.3671 21.0758 37.0382 23.0826 35.1852C24.8235 33.5691 25.346 31.6658 26.0514 30.5913C26.7449 29.5168 26.9111 29.2208 28.4976 29.2208L28.5 29.2296Z" fill="white"/>
</svg>
