<svg width="44" height="44" viewBox="0 0 44 44" fill="none" xmlns="http://www.w3.org/2000/svg">
<path d="M29.2668 31.1851L33.0468 27.4051C33.556 26.9023 34.2001 26.5581 34.9011 26.4143C35.602 26.2705 36.3296 26.3333 36.9956 26.5951L41.6025 28.4344C42.2755 28.7076 42.8525 29.1739 43.2609 29.7745C43.6693 30.3751 43.8908 31.0832 43.8975 31.8094V40.2469C43.8936 40.741 43.7897 41.2292 43.5921 41.682C43.3946 42.1349 43.1074 42.5431 42.748 42.8821C42.3885 43.2211 41.9642 43.4838 41.5005 43.6544C41.0368 43.8251 40.5434 43.9001 40.05 43.8751C7.7681 41.8669 1.25435 14.5294 0.0224732 4.06694C-0.0347112 3.55316 0.0175367 3.03309 0.17578 2.54095C0.334022 2.04881 0.594674 1.59576 0.940587 1.21159C1.2865 0.827416 1.70983 0.52084 2.18274 0.312027C2.65564 0.103214 3.1674 -0.00310358 3.68435 6.89665e-05H11.835C12.5623 0.00222186 13.2724 0.22192 13.8738 0.630906C14.4753 1.03989 14.9406 1.61946 15.21 2.29507L17.0493 6.90194C17.3198 7.56525 17.3888 8.29353 17.2477 8.99581C17.1067 9.6981 16.7618 10.3433 16.2562 10.8507L12.4762 14.6307C12.4762 14.6307 14.6531 29.3626 29.2668 31.1851Z" fill="white"/>
</svg>
